<?xml version="1.0" encoding="iso-8859-1"?>
<!-- Generator: Adobe Illustrator 19.0.0, SVG Export Plug-In . SVG Version: 6.00 Build 0)  -->
<svg version="1.1" id="Layer_1" xmlns="http://www.w3.org/2000/svg" xmlns:xlink="http://www.w3.org/1999/xlink" x="0px" y="0px"
	 viewBox="0 0 512 512" style="enable-background:new 0 0 512 512;" xml:space="preserve">
<path style="fill:#C6D7E4;" d="M352.261,123.858c-1.719,0-3.377,0.263-4.936,0.754c1.682-2.582,2.66-5.664,2.66-8.976
	c0-9.09-7.369-16.459-16.459-16.459H31.852c-9.09,0-16.459,7.369-16.459,16.459v379.905c0,9.09,7.369,16.459,16.459,16.459h320.409
	c9.09,0,16.459-7.369,16.459-16.459V140.318C368.72,131.228,361.352,123.858,352.261,123.858z"/>
<path style="fill:#EBEFFA;" d="M192.057,99.177H31.852c-9.09,0-16.459,7.369-16.459,16.459v379.905
	c0,9.09,7.369,16.459,16.459,16.459h160.205V99.177z"/>
<path style="fill:#81C642;" d="M15.393,428.615v66.925c0,9.09,7.369,16.459,16.459,16.459h320.409
	c9.09,0,16.459-7.369,16.459-16.459v-66.925H15.393z"/>
<path style="fill:#9EE554;" d="M15.393,428.615v66.925c0,9.09,7.369,16.459,16.459,16.459h160.205v-83.384H15.393z"/>
<path style="fill:#787878;" d="M316.456,179.898c-6.428-6.428-6.428-16.849,0-23.277l30.916-30.916
	c6.428-6.428,16.849-6.428,23.277,0c6.428,6.428,6.428,16.849,0,23.277l-30.916,30.916
	C333.306,186.325,322.884,186.325,316.456,179.898z"/>
<path style="fill:#F22F0A;" d="M421.02,159.683l48.708-63.996c6.361,5.22,15.76,4.977,21.835-0.87
	c6.549-6.304,6.747-16.724,0.443-23.272L427.993,5.044c-6.304-6.549-16.724-6.747-23.272-0.443
	c-6.075,5.847-6.675,15.233-1.7,21.788l-65.805,46.234c-6.012-2.869-13.419-1.911-18.501,2.981
	c-6.549,6.304-6.747,16.724-0.443,23.272l5.865,6.092c0.013,0.013,0.024,0.029,0.037,0.042c0.011,0.011,0.023,0.021,0.034,0.033
	l63.919,66.402c0.011,0.011,0.02,0.024,0.031,0.035c0.013,0.013,0.027,0.025,0.041,0.038l5.865,6.092
	c6.304,6.549,16.724,6.747,23.272,0.443C422.418,173.165,423.658,165.8,421.02,159.683z"/>
<path style="fill:#FF7F28;" d="M392.047,34.1l-54.832,38.525c-6.012-2.869-13.419-1.911-18.501,2.981
	c-6.549,6.304-6.747,16.724-0.443,23.272l5.865,6.092c0.013,0.013,0.024,0.029,0.037,0.042c0.011,0.011,0.023,0.021,0.034,0.033
	l63.919,66.402c0.011,0.011,0.02,0.024,0.031,0.035c0.013,0.013,0.027,0.025,0.041,0.038l4.663,4.845L392.047,34.1z"/>
<g>
	<path style="fill:#0B2A96;" d="M325.389,233.242H61.837c-9.09,0-16.459-7.369-16.459-16.459c0-9.09,7.369-16.459,16.459-16.459
		H325.39c9.09,0,16.459,7.369,16.459,16.459C341.849,225.872,334.48,233.242,325.389,233.242z"/>
	<path style="fill:#0B2A96;" d="M325.389,302.891H61.837c-9.09,0-16.459-7.369-16.459-16.459s7.369-16.459,16.459-16.459H325.39
		c9.09,0,16.459,7.369,16.459,16.459C341.848,295.523,334.48,302.891,325.389,302.891z"/>
	<path style="fill:#0B2A96;" d="M325.389,368.288H61.837c-9.09,0-16.459-7.369-16.459-16.459s7.369-16.459,16.459-16.459H325.39
		c9.09,0,16.459,7.369,16.459,16.459S334.48,368.288,325.389,368.288z"/>
</g>
<g>
	<path style="fill:#044FC7;" d="M192.056,200.323H61.837c-9.09,0-16.459,7.369-16.459,16.459c0,9.09,7.369,16.459,16.459,16.459
		h130.219V200.323z"/>
	<path style="fill:#044FC7;" d="M192.056,269.973H61.837c-9.09,0-16.459,7.369-16.459,16.459s7.369,16.459,16.459,16.459h130.219
		V269.973z"/>
	<path style="fill:#044FC7;" d="M192.056,335.369H61.837c-9.09,0-16.459,7.369-16.459,16.459s7.369,16.459,16.459,16.459h130.219
		V335.369z"/>
</g>
<g>
</g>
<g>
</g>
<g>
</g>
<g>
</g>
<g>
</g>
<g>
</g>
<g>
</g>
<g>
</g>
<g>
</g>
<g>
</g>
<g>
</g>
<g>
</g>
<g>
</g>
<g>
</g>
<g>
</g>
</svg>
